<svg xmlns="http://www.w3.org/2000/svg" width="350" height="350" viewBox="0 0 350 350">
    <rect id="Rectangle_3" data-name="Rectangle 3" width="50" height="50" transform="translate(0 200)" fill="#fab82c"/>
    <rect id="Rectangle_4" data-name="Rectangle 4" width="50" height="50" transform="translate(50 200)" fill="#fbce37"/>
    <rect id="Rectangle_5" data-name="Rectangle 5" width="50" height="50" transform="translate(100 200)" fill="#fbce37"/>
    <rect id="Rectangle_6" data-name="Rectangle 6" width="50" height="50" transform="translate(150 200)" fill="#fbce37"/>
    <rect id="Rectangle_7" data-name="Rectangle 7" width="50" height="50" transform="translate(50 250)" fill="#fab82c"/>
    <rect id="Rectangle_8" data-name="Rectangle 8" width="50" height="50" transform="translate(100 250)" fill="#fbce37"/>
    <rect id="Rectangle_9" data-name="Rectangle 9" width="50" height="50" transform="translate(50 150)" fill="#fbce37"/>
    <rect id="Rectangle_10" data-name="Rectangle 10" width="50" height="50" transform="translate(100 150)" fill="#fbce37"/>
    <rect id="Rectangle_11" data-name="Rectangle 11" width="50" height="50" transform="translate(0 150)" fill="#fab82c"/>
    <rect id="Rectangle_12" data-name="Rectangle 12" width="50" height="50" transform="translate(150 150)" fill="#fbce37"/>
    <rect id="Rectangle_13" data-name="Rectangle 13" width="50" height="50" transform="translate(0 100)" fill="#fab82c"/>
    <rect id="Rectangle_14" data-name="Rectangle 14" width="50" height="50" transform="translate(50 100)" fill="#fbce37"/>
    <rect id="Rectangle_15" data-name="Rectangle 15" width="50" height="50" transform="translate(100 100)" fill="#fbce37"/>
    <rect id="Rectangle_16" data-name="Rectangle 16" width="50" height="50" transform="translate(150 100)" fill="#fbce37"/>
    <rect id="Rectangle_17" data-name="Rectangle 17" width="50" height="50" transform="translate(150 250)" fill="#fbce37"/>
    <rect id="Rectangle_18" data-name="Rectangle 18" width="50" height="50" transform="translate(100 300)" fill="#fab82c"/>
    <rect id="Rectangle_19" data-name="Rectangle 19" width="50" height="50" transform="translate(150 300)" fill="#fab82c"/>
    <rect id="Rectangle_20" data-name="Rectangle 20" width="50" height="50" transform="translate(200 300)" fill="#fab82c"/>
    <rect id="Rectangle_21" data-name="Rectangle 21" width="50" height="50" transform="translate(200 250)" fill="#fbce37"/>
    <rect id="Rectangle_22" data-name="Rectangle 22" width="50" height="50" transform="translate(250 250)" fill="#fab82c"/>
    <rect id="Rectangle_23" data-name="Rectangle 23" width="50" height="50" transform="translate(200 200)" fill="#fbce37"/>
    <rect id="Rectangle_24" data-name="Rectangle 24" width="50" height="50" transform="translate(250 200)" fill="#fbce37"/>
    <rect id="Rectangle_25" data-name="Rectangle 25" width="50" height="50" transform="translate(300 200)" fill="#fab82c"/>
    <rect id="Rectangle_26" data-name="Rectangle 26" width="50" height="50" transform="translate(200 150)" fill="#fbce37"/>
    <rect id="Rectangle_27" data-name="Rectangle 27" width="50" height="50" transform="translate(250 150)" fill="#fbce37"/>
    <rect id="Rectangle_28" data-name="Rectangle 28" width="50" height="50" transform="translate(300 150)" fill="#fab82c"/>
    <rect id="Rectangle_29" data-name="Rectangle 29" width="50" height="50" transform="translate(300 100)" fill="#fab82c"/>
    <rect id="Rectangle_30" data-name="Rectangle 30" width="50" height="50" transform="translate(200 100)" fill="#fbce37"/>
    <rect id="Rectangle_31" data-name="Rectangle 31" width="50" height="50" transform="translate(250 100)" fill="#fbce37"/>
    <rect id="Rectangle_33" data-name="Rectangle 33" width="50" height="50" transform="translate(50 50)" fill="#fab82c"/>
    <rect id="Rectangle_34" data-name="Rectangle 34" width="50" height="50" transform="translate(100 50)" fill="#fbce37"/>
    <rect id="Rectangle_35" data-name="Rectangle 35" width="50" height="50" transform="translate(150 50)" fill="#fbce37"/>
    <rect id="Rectangle_36" data-name="Rectangle 36" width="50" height="50" transform="translate(200 50)" fill="#fbce37"/>
    <rect id="Rectangle_37" data-name="Rectangle 37" width="50" height="50" transform="translate(250 50)" fill="#fab82c"/>
    <rect id="Rectangle_38" data-name="Rectangle 38" width="50" height="50" transform="translate(100)" fill="#fab82c"/>
    <rect id="Rectangle_39" data-name="Rectangle 39" width="50" height="50" transform="translate(150)" fill="#fab82c"/>
    <rect id="Rectangle_40" data-name="Rectangle 40" width="50" height="50" transform="translate(200)" fill="#fab82c"/>
</svg>
